<?xml version="1.0" standalone="no"?>
<!DOCTYPE svg PUBLIC "-//W3C//DTD SVG 20010904//EN"
 "http://www.w3.org/TR/2001/REC-SVG-20010904/DTD/svg10.dtd">
<svg version="1.0" xmlns="http://www.w3.org/2000/svg"
 width="142.000000pt" height="127.000000pt" viewBox="0 0 142.000000 127.000000"
 preserveAspectRatio="xMidYMid meet">

<g transform="translate(0.000000,127.000000) scale(0.100000,-0.100000)"
fill="#000000" stroke="none">
<path d="M0 635 l0 -635 710 0 710 0 0 635 0 635 -710 0 -710 0 0 -635z m991
539 c85 -25 190 -81 246 -130 58 -50 102 -129 106 -189 l2 -40 -632 -3 -633
-2 0 37 c0 54 42 136 95 188 50 48 178 117 260 140 77 21 484 20 556 -1z m74
-405 c155 1 250 -2 269 -9 26 -10 27 -12 14 -32 -15 -22 -16 -22 -464 -26
-641 -6 -714 -5 -764 3 -57 9 -64 15 -44 43 l16 23 321 -5 c211 -4 327 -2 337
4 8 6 28 7 45 3 17 -4 138 -6 270 -4z m270 -144 l0 -30 -619 -3 c-375 -1 -624
2 -629 7 -5 5 -7 21 -3 35 l6 26 623 -2 622 -3 0 -30z m-61 -84 c12 -12 34
-21 48 -21 31 0 39 -17 28 -61 -17 -71 -13 -69 -114 -63 -50 3 -106 10 -124
16 -26 8 -38 6 -57 -6 -29 -19 -102 -21 -142 -4 -15 6 -72 12 -126 13 -82 1
-100 -1 -114 -17 -21 -24 -47 -23 -81 2 -26 20 -30 20 -65 5 -33 -14 -40 -14
-67 0 -40 20 -63 19 -86 -6 -16 -18 -27 -20 -74 -15 -30 3 -89 8 -130 12 -41
3 -81 11 -88 16 -17 14 -15 73 3 108 19 38 92 52 135 26 38 -22 342 -28 379
-7 20 11 42 11 132 0 86 -10 119 -10 161 0 92 21 180 30 272 26 72 -3 93 -8
110 -24z m64 -229 c8 -54 28 -52 -620 -52 -394 0 -606 4 -619 10 -21 12 -25
40 -7 58 9 9 157 12 628 10 l615 -3 3 -23z m2 -80 c0 -15 -54 -59 -99 -82 -24
-12 -87 -33 -139 -46 -89 -23 -111 -24 -391 -24 -257 0 -306 3 -376 19 -128
31 -222 78 -245 122 -11 19 0 19 620 19 346 0 630 -4 630 -8z"/>
</g>
</svg>
